<svg xmlns="http://www.w3.org/2000/svg" viewBox="0 0 32 32" fill="none">
  <rect width="32" height="32" rx="8" fill="#6366f1"/>
  <path d="M10 16 C10 12.686 12.686 10 16 10 L22 10 L22 13 L16 13 C14.343 13 13 14.343 13 16 C13 17.657 14.343 19 16 19 L22 19 L22 22 L16 22 C12.686 22 10 19.314 10 16Z" fill="white"/>
  <path d="M22 16 C22 19.314 19.314 22 16 22 L10 22 L10 19 L16 19 C17.657 19 19 17.657 19 16 C19 14.343 17.657 13 16 13 L10 13 L10 10 L16 10 C19.314 10 22 12.686 22 16Z" fill="white" opacity="0.5"/>
</svg>
